<?xml version="1.0" encoding="utf-8"?>
<!-- Generator: Adobe Illustrator 25.4.1, SVG Export Plug-In . SVG Version: 6.00 Build 0)  -->
<svg version="1.1" id="Layer_1" xmlns="http://www.w3.org/2000/svg" xmlns:xlink="http://www.w3.org/1999/xlink" x="0px" y="0px"
	 viewBox="0 0 1089 548" style="enable-background:new 0 0 1089 548;" xml:space="preserve">
<style type="text/css">
	.st0{display:none;fill:#8C5535;}
	.st1{font-family:'Merriweather-Regular';}
	.st2{font-size:324.1833px;}
	.st3{fill:#8C5535;}
</style>
<text transform="matrix(1 0 0 1 52.8994 400.7598)" class="st0 st1 st2">OUD</text>
<g>
	<g>
		<path class="st3" d="M110.12,389.09c-15.24-10.16-26.75-24.48-34.53-42.95s-11.67-39.93-11.67-64.35c0-24.85,4.7-46.68,14.1-65.49
			s22.31-33.33,38.74-43.6c16.42-10.26,34.9-15.4,55.44-15.4c33.72,0,59.49,10.65,77.32,31.93c17.83,21.29,26.75,50.73,26.75,88.34
			c0,25.29-4.81,47.49-14.43,66.62c-9.62,19.13-22.8,33.93-39.55,44.41c-16.75,10.49-35.5,15.72-56.25,15.72
			C144,404.33,125.35,399.25,110.12,389.09z M120.65,201.55c-12.11,18.27-18.15,45.01-18.15,80.24c0,32.42,5.89,58.08,17.67,76.99
			c11.78,18.91,28.25,28.37,49.44,28.37c20.75,0,37.23-9.4,49.44-28.2c12.21-18.8,18.32-45.82,18.32-81.05
			c0-32.63-5.84-58.08-17.51-76.34c-11.67-18.26-28.2-27.39-49.6-27.39C149.29,174.16,132.75,183.29,120.65,201.55z"/>
		<path class="st3" d="M340.28,377.91c-15.02-16.96-22.53-43.28-22.53-78.94V179.99l-23.02-3.89v-16.21h86.56v16.21l-27.56,4.21
			v122.22c0,29.39,5.24,50.57,15.72,63.54c10.48,12.97,25.55,19.45,45.22,19.45c19.66,0,34.41-6.91,44.25-20.75
			c9.83-13.83,14.75-33.93,14.75-60.3V180.31l-27.23-4.21v-16.21h75.54v16.21l-23.67,3.89v122.87c0,33.71-8,58.9-23.99,75.54
			c-16,16.64-37.28,24.96-63.86,24.96C378.7,403.35,355.3,394.87,340.28,377.91z"/>
		<path class="st3" d="M568.67,179.99l-25.29-3.89v-16.21h42.47c6.7,0,16.32-0.43,28.85-1.3c12.53-0.86,21.93-1.3,28.2-1.3
			c40.2,0,70.07,10.11,89.64,30.31c19.56,20.21,29.34,48.58,29.34,85.1c0,25.5-5.03,48.14-15.08,67.92
			c-10.05,19.78-24.15,35.17-42.31,46.2c-18.15,11.02-39.01,16.53-62.57,16.53c-5.19,0-14.05-0.44-26.58-1.3
			c-12.97-0.87-22.69-1.3-29.18-1.3h-44.41v-15.88l26.91-3.24V179.99z M632.21,385.2h9.73c16.21-0.21,30.52-4.32,42.95-12.32
			c12.43-7.99,22.1-19.94,29.01-35.82c6.91-15.88,10.37-35.17,10.37-57.87c0-34.15-7.41-60.08-22.21-77.8
			c-14.81-17.72-37.12-26.58-66.94-26.58c-6.27,0-13.73,0.44-22.37,1.3c-3.68,0.65-6.92,0.97-9.73,0.97v205.53
			C610.59,384.34,620.32,385.2,632.21,385.2z"/>
	</g>
	<path class="st3" d="M1007.54,448.36c-14.57,21.26-34.11,34.67-58.99,39.54c-26.58,5.19-53.05,5.12-79.46-0.99
		c-12.12-2.81-22.8-8.78-32.58-16.58c-7.13-5.69-13.78-11.95-19.18-19.5c-7.87-10.99-12.47-23.44-14.88-36.83
		c-3.25-18.04-2.65-36.11,0.26-54.07c7.55-46.67,24.75-89.28,50.52-128.22c10.74-16.23,22.61-31.44,36.38-45.01
		c0.62-0.61,1.1-1.63,1.18-2.51c2.38-28.94,4.74-57.88,6.95-86.83c0.16-2.17-0.59-4.52-1.33-6.63c-1.64-4.64-3.54-9.18-5.38-13.89
		c-1.73,0.33-3.62,0.6-5.46,1.08c-0.54,0.14-1.17,0.82-1.36,1.39c-1.19,3.68-5.16,6-8.75,5c-2.4-0.67-3.96-3-3.97-5.94
		c-0.02-2.9,1.2-4.66,3.74-5.5c2.25-0.75,4.48-0.58,6.33,0.82c1.37,1.04,2.59,1.1,4.06,0.75c1.65-0.39,3.31-0.69,5.18-1.08
		c-0.15-5.64,2.01-10.25,6.22-13.71c3.52-2.88,7.72-3.4,12.08-3.44c7.42-0.08,16.17,6.12,16.33,17.07c2.26,0.48,4.55,1.01,6.87,1.4
		c0.54,0.09,1.16-0.35,1.74-0.53c1.92-0.59,3.84-1.66,5.76-1.65c3.6,0.01,5.65,2.96,5.19,6.71c-0.43,3.54-3.09,5.69-6.53,5.15
		c-3.31-0.52-5.81-2.12-6.41-5.95c-2.45-0.54-4.87-1.07-7.07-1.55c-1.78,4.56-3.7,8.87-5.13,13.35c-0.86,2.68-1.53,5.66-1.32,8.43
		c2.19,28.72,4.59,57.43,6.9,86.14c0.26,3.15,2,5.44,4.01,7.43c5.1,5.06,10.52,9.78,15.53,14.93c6.32,6.5,12.66,13.01,18.45,20
		c21.79,26.28,37.52,56.24,48.83,88.75c7.57,21.75,12.48,44.12,12.74,67.38C1025.25,406.7,1020.87,428.92,1007.54,448.36z"/>
</g>
</svg>
